<svg xmlns="http://www.w3.org/2000/svg" xmlns:xlink="http://www.w3.org/1999/xlink" width="500" zoomAndPan="magnify" viewBox="0 0 375 374.999991" height="500" preserveAspectRatio="xMidYMid meet" version="1.0"><defs><clipPath id="f77c728a3d"><path d="M 54.421875 33.730469 L 320.671875 33.730469 L 320.671875 341.230469 L 54.421875 341.230469 Z M 54.421875 33.730469 " clip-rule="nonzero"/></clipPath></defs><g clip-path="url(#f77c728a3d)"><path fill="#1c3d86" d="M 174.503906 305.230469 L 174.503906 194.390625 L 79.179688 139.550781 L 79.179688 202.730469 L 122.839844 228.046875 L 122.839844 275.558594 Z M 199.257812 305.875 L 251.875 275.570312 L 251.875 226.933594 L 295.820312 201.472656 L 295.820312 139.070312 L 199.257812 194.828125 Z M 283.117188 117.820312 L 232.371094 88.410156 L 187.800781 114.265625 L 142.902344 88.382812 L 91.695312 118.1875 L 187.257812 173.164062 Z M 54.421875 264.808594 L 54.421875 111.226562 L 187.488281 33.78125 L 320.578125 110.90625 L 320.578125 264.570312 L 187.476562 341.238281 L 54.421875 264.8125 Z M 54.421875 264.808594 " fill-opacity="1" fill-rule="nonzero"/></g></svg>